# xmcd CD database file
#
# Track frame offsets:
#	183
#	21533
#	45435
#	65108
#	85883
#	117433
#	147033
#	170808
#	186483
#	202130
#	225298
#
# Disc length: 3429 seconds
#
# Revision: 0
# Processed by: cddbd v1.5.2PL0 Copyright (c) Steve Scherf et al.
# Submitted via: CDex 1.79
#
DISCID=a20d630b
DTITLE=AAVV - A guitar night in Italy
DYEAR=1989
DGENRE=Blues
TTITLE0=The idler
TTITLE1=Dr. Brown I presume
TTITLE2=You're lost little girl
TTITLE3=Hey Joe
TTITLE4=Theme from imaginary western
TTITLE5=In the skin
TTITLE6=Hey man
TTITLE7=Sylvia
TTITLE8=Hocus pocus
TTITLE9=Instrumental
TTITLE10=Road house blues
EXTD=YEAR: 1989
EXTT0=
EXTT1=
EXTT2=
EXTT3=
EXTT4=
EXTT5=
EXTT6=
EXTT7=
EXTT8=
EXTT9=
EXTT10=
PLAYORDER=
